/* XPM */
static char *collectible[] = {
/* columns rows colors chars-per-pixel */
"32 32 168 2 ",
"   c #010101",
".  c #060708",
"X  c #070809",
"o  c #0B0B0C",
"O  c #110300",
"+  c #1F0C08",
"@  c #250E0A",
"#  c #23110E",
"$  c #2C120B",
"%  c #34150F",
"&  c #39160E",
"*  c #261210",
"=  c None",
"-  c None",
";  c #2C2C2C",
":  c #38343D",
">  c #393939",
",  c #4D0D00",
"<  c #500F00",
"1  c #531100",
"2  c #5A1502",
"3  c #651C04",
"4  c #631B09",
"5  c #691F0E",
"6  c #4D2117",
"7  c #592319",
"8  c #6D200D",
"9  c #6B2005",
"0  c #74250C",
"q  c #6E2110",
"w  c #63261C",
"e  c #6C2A1E",
"r  c #782712",
"t  c #7B2A10",
"y  c #702B1F",
"u  c #7C3F15",
"i  c #4D3737",
"p  c #6F2C20",
"a  c #762E21",
"s  c #373946",
"d  c #3C3C45",
"f  c #3D3D4A",
"g  c #40404E",
"h  c #424659",
"j  c #47485A",
"k  c #4C4D5E",
"l  c #544B54",
"z  c #504E5D",
"x  c #604C49",
"c  c #77574D",
"v  c #7A584C",
"b  c #555564",
"n  c #5F5F66",
"m  c #636363",
"M  c #626269",
"N  c #68686E",
"B  c #616272",
"V  c #686A7B",
"C  c #7C797E",
"Z  c #8B350D",
"A  c #963C0F",
"S  c #822D18",
"D  c #812C17",
"F  c #843F13",
"G  c #973B15",
"H  c #863425",
"J  c #8D3627",
"K  c #913620",
"L  c #913728",
"P  c #943929",
"I  c #993C2B",
"U  c #A34513",
"Y  c #B14D15",
"T  c #B34E1A",
"R  c #AC551A",
"E  c #995B37",
"W  c #AE482E",
"Q  c #A6442D",
"!  c #A84531",
"~  c #AE4933",
"^  c #A54330",
"/  c #B34B34",
"(  c #B24F3A",
")  c #BA5139",
"_  c #AB663E",
"`  c #A6653F",
"'  c #BC6731",
"]  c #C45A1A",
"[  c #CA5D1B",
"{  c #D4631E",
"}  c #D9671F",
"|  c #DD691F",
" . c None",
".. c #CA593D",
"X. c #DE6A20",
"o. c #C26D39",
"O. c #CC7137",
"+. c #DD7530",
"@. c #D37233",
"#. c #E46E21",
"$. c #EA7222",
"%. c #E2762F",
"&. c #E7782D",
"*. c #ED7A2C",
"=. c #73CDA4",
"-. c None",
";. c None",
":. c None",
">. c #8F5E46",
",. c #835B4A",
"<. c #905F48",
"1. c #9A6144",
"2. c #A26441",
"3. c #A46D4F",
"4. c #856C68",
"5. c #88706D",
"6. c #C65C40",
"7. c #CD5F42",
"8. c #D45F42",
"9. c #D46043",
"0. c #DC6546",
"q. c #E26646",
"w. c #E06648",
"e. c #E66A4A",
"r. c #E86B4B",
"t. c #E77253",
"y. c #E77A5E",
"u. c #E97B5F",
"i. c None",
"p. c None",
"a. c #E8876E",
"s. c #EB896F",
"d. c #E68A73",
"f. c #EC8B72",
"g. c #6F7182",
"h. c #7F7F89",
"j. c #7C7C87",
"k. c #817D86",
"l. c #848484",
"z. c #86848D",
"x. c #909093",
"c. c #9D9D9E",
"v. c #858595",
"b. c #A99690",
"n. c #A79B9B",
"m. c #9696A3",
"M. c #9999A6",
"N. c #9F9FAC",
"B. c #A0A1AC",
"V. c #A6A6A6",
"C. c #A5A4B4",
"Z. c #B7B8BF",
"A. c #BBBCC3",
"S. c #C5C5CC",
"D. c #C7C8CD",
"F. c #C8C8CE",
"G. c #C3C4D4",
"H. c #CFCFD3",
"J. c #C7C7D8",
"K. c #C9C9D9",
"L. c #E0E0E6",
"P. c #E5E5EB",
"I. c #E8E8EE",
"U. c #FBE9E5",
"Y. c #FDF4F1",
"T. c #F5F5F9",
"R. c #FFFFFE",
"E. c #F3F3F4",
/* pixels */
"=.=.=.=.=.=.=.=.=.=.=.=.=.=.=.=.=.=.=.=.=.=.=.=.=.=.=.=.=.=.=.=.",
"=.=.=.=.=.=.=.=.=.=.=.=.=.=.=.=.=.=.=.=.=.=.=.=.=.=.=.=.=.=.=.=.",
"=.=.=.=.=.=.=.=.=.=.=.=.=.=.=.=.=.=.=.=.=.=.=.=.=.=.=.=.=.=.=.=.",
"=.=.=.=.=.=.=.=.=.=.=.=.=.=.=.=.=.=.=.=.=.=.=.=.=.=.=.=.=.=.=.=.",
"=.=.=.=.=.=.=.=.=.=.=.=.=.=.=.=.=.=.=.=.=.=.=.=.=.=.=.=.=.=.=.=.",
"=.=.=.=.=.=.=.=.=.=.=.=.=.=.=.=.=.=.=.=.=.=.=.=.=.=.=.=.=.=.=.=.",
"=.=.=.=.=.=.=.=.=.=.=.=.=.=.=.=.=.=.=.=.=.=.=.=.=.=.=.=.=.=.=.=.",
"=.=.=.=.=.=.=.=.=.=.=.=.=.=.=.=.=.=.=.=.=.=.=.=.=.=.=.=.=.=.=.=.",
"=.=.=.=.=.=.=.=.=.=.=.i.p.p.p.p.p.p.p.p.p.i.=.=.=.=.=.=.=.=.=.=.",
"=.=.=.=.=.=.=.=.=.=.i.$.Y Y Y Y Y Y Y Y Y #.i.=.=.=.=.=.=.=.=.=.",
"=.=.=.=.=.=.=.=.=.i.p.{ 1 , , , , , , , < [ p.i.=.=.=.=.=.=.=.=.",
"=.=.=.=.=.=.=.=.=.| ] T S S S S S S S S S T ] } =.=.=.=.=.=.=.=.",
"=.=.=.=.=.=.=.i.i.A , r q.q.e.e.e.e.e.e.e.D , Z =.p.=.=.=.=.=.=.",
"=.=.=.=.=.=.-.| } G 8 P a.s.t.e.0.8.8.8.8.K q G } | -.=.=.=.=.=.",
"=.=.=.=.=.p.$.9 2 W q.d.Y.Y.f.e. .I I I I ..w./ 2 3 #.p.i.=.=.=.",
"=.=.=.=.-.$.} 0 4 W 0.d.U.U.f.e. .P P I I  .w./ 4 8 { $.:.=.=.=.",
"=.=.=.p.[ 3 0 ..8./ I ( y.u.t.r. .I I I I I I ~ 8...t 3 Y i.=.=.",
"=.=.=.p.] , 4 9.r./ L ! 0.q.0.0.) J J P P P P ~ e.0.5 , U i.=.=.",
"=.=.=.p.R O $ 9.r./ P I ^ ^ 6 % $ + % J I P P ~ e.0.& O F i.=.=.",
"=.=.=.p.R   # 6.0./ P P J H * X X X # H J P P ! 0.7.=   u i.=.=.",
"=.=.=.i.' d : - - y I a @ # C M.m.M.k.= @ y I a - - : s E i.=.=.",
"=.=.=.i.o.k g X   7 I e   X m.K.K.K.B.o   w I w   . f k 2.i.=.=.",
"=.=.=.i.o.j b c.V.x % @   X m.K.G.J.N.o   @ % i h.j.b j 2.i.=.=.",
"=.=.=.i.o.j B E.R.m       . m.K.J.K.B.o       d K.G.B h 2.i.=.=.",
"=.=.=.i.%.` 3.n.B.x.l.l.l.l.N M n M N l.l.l.l.z.v.z.3.` @.=.=.=.",
"=.=.=.=.=.i.&.l h A.R.R.R.T.>       ; E.R.R.R.D.j l +.i.=.=.=.=.",
"=.=.=.=.=.=.*.1.>.b.Z.S.I.P.l.m m m C L.I.F.Z.n.<.1.*.i.=.=.=.=.",
"=.=.=.=.=.=.=.=.=.>.h V G.K.T.R.R.R.T.K.G.g.h ,.=.=.=.=.=.=.=.=.",
"=.=.=.=.=.=.=.=.=._ c 4.C.C.S.H.H.H.D.C.C.5.c 2.;.=.=.=.=.=.=.=.",
"=.=.=.=.=.=.=.=.=.;.;.O.z k k k k k k k k o.;.;.=.=.=.=.=.=.=.=.",
"=.=.=.=.=.=.=.=.=.=.i.+.v c c c c c c c v @.i.=.=.=.=.=.=.=.=.=.",
"=.=.=.=.=.=.=.=.=.=.=.;.-.-.-.-.-.-.-.-.-.;.=.=.=.=.=.=.=.=.=.=."
};
