/* XPM */
static char *exit[] = {
/* columns rows colors chars-per-pixel */
"32 32 172 2 ",
"   c #010100",
".  c #0C0503",
"X  c #0B0902",
"o  c #100B02",
"O  c #1B1402",
"+  c #1E1A09",
"@  c #271306",
"#  c #2B1507",
"$  c #281E00",
"%  c #351B08",
"&  c #292206",
"*  c #3B2109",
"=  c #332D0F",
"-  c #3F3309",
";  c #383110",
":  c #372424",
">  c #4F290D",
",  c #4C300C",
"<  c #56330D",
"1  c #6A3510",
"2  c #4C3720",
"3  c #5A3F23",
"4  c #543A28",
"5  c #462E31",
"6  c #482F31",
"7  c #4A3132",
"8  c #473031",
"9  c #6A3D35",
"0  c #584100",
"q  c #4C4316",
"w  c #57401F",
"e  c #6D5304",
"r  c #7D5C01",
"t  c #74570B",
"y  c #664A16",
"u  c #684A18",
"i  c #754D1F",
"p  c #7F6001",
"a  c #5B4022",
"s  c #6B4F29",
"d  c #684C27",
"f  c #774820",
"g  c #74432F",
"h  c #74562C",
"j  c #7A4436",
"k  c #765A31",
"l  c #6E6020",
"z  c #7C6A24",
"x  c #6D6965",
"c  c #787563",
"v  c #805F00",
"b  c #824114",
"n  c #974B17",
"m  c #9A4D18",
"M  c #AA551A",
"N  c #B3591B",
"B  c #BE5F1D",
"V  c #836301",
"C  c #886602",
"Z  c #8C6B04",
"A  c #8E6D08",
"S  c #9D6808",
"D  c #947107",
"F  c #937209",
"G  c #9C7A0C",
"H  c #9F6411",
"J  c #9E7E15",
"K  c #896819",
"L  c #A46A0B",
"P  c #A6760C",
"I  c #B0740F",
"U  c #A8611E",
"Y  c #B46E15",
"T  c #864B2E",
"R  c #904F2E",
"E  c #985529",
"W  c #A1592B",
"Q  c #B55F2B",
"!  c #BE5A34",
"~  c #8B6A29",
"^  c #976A28",
"/  c #837123",
"(  c #806639",
")  c #BB6A24",
"_  c #BA612C",
"`  c #C3611E",
"'  c #CC661F",
"]  c #C97216",
"[  c #DA781B",
"{  c #C26A23",
"}  c #C8672A",
"|  c #CA682A",
" . c #C36426",
".. c #D66D29",
"X. c #CB772B",
"o. c #CE7C2D",
"O. c #DF7129",
"+. c #D6713B",
"@. c #D27B30",
"#. c #EB7524",
"$. c #E77523",
"%. c #F37925",
"&. c #73CDA4",
"*. c #857E61",
"=. c #E56F41",
"-. c #EE7241",
";. c #F07342",
":. c #A9840F",
">. c #A4800D",
",. c #A68416",
"<. c #A88714",
"1. c #A58319",
"2. c #A9891A",
"3. c #AE8911",
"4. c #B58F14",
"5. c #BA9416",
"6. c #B9951B",
"7. c #AC8A26",
"8. c #B89928",
"9. c #B69A34",
"0. c #B9A136",
"q. c #C39C19",
"w. c #D9991F",
"e. c #CCA41D",
"r. c #C7A01D",
"t. c #D2A91F",
"y. c #D0A71E",
"u. c #C09F24",
"i. c #DD9D20",
"p. c #FF8027",
"a. c #FF8128",
"s. c #C5A224",
"d. c #CCAB2C",
"f. c #C6A528",
"g. c #D5AC20",
"h. c #DEB729",
"j. c #CDB43C",
"k. c #D4B330",
"l. c #D8B732",
"z. c #DDBC35",
"x. c #E0A022",
"c. c #E0BF37",
"v. c #EAC535",
"b. c #E5C53B",
"n. c #EBCA3C",
"m. c #F0CD3C",
"M. c #F4D13F",
"N. c #D8934B",
"B. c #F18843",
"V. c #F59D43",
"C. c #C9AC44",
"Z. c #F4A244",
"A. c #F8B046",
"S. c #E2C642",
"D. c #EECF44",
"F. c #EED14E",
"G. c #F3D344",
"H. c #F8D745",
"J. c #FADA47",
"K. c #F2D648",
"L. c #FFDE4A",
"P. c #FFDF50",
"I. c #FFE04B",
"U. c #FFE056",
"Y. c #FFE260",
"T. c #FFE56F",
"R. c #FFEEA2",
"E. c #FFF0AB",
"W. c #FFF1B2",
"Q. c #FFF8DB",
"!. c #FFFBEA",
"~. c #FFFDF6",
/* pixels */
"&.&.&.&.&.&.&.&.&.&.&.&.&.&.&.&.&.&.&.&.&.&.&.&.&.&.&.&.&.&.&.&.",
"&.&.&.&.p.p.p.p.p.&.&.&.&.&.&.&.&.&.&.&.&.&.&.&.p.p.p.p.&.&.&.&.",
"&.&.&.%.#.#.#.#.#.#.&.&.&.&.&.&.&.&.&.&.&.&.&.&.%.#.#.#.#.#.%.&.",
"&.&.a.B # # # # @ > %.&.&.&.&.&.&.&.&.&.&.&.&.%.1 @ # # # # M a.",
"&.&.a.N           % #.&.&.&.p.p.p.p.p.p.&.%.&.%.>           n a.",
"&.&.a.N       & 9.8.L L L I w.x.x.x.x.i.I L L L 8.0.;       n a.",
"&.&.a.N .     = K.n.Z V V A e.g.g.g.g.t.F V V V z.L.q       m a.",
"&.&.p.#.B b   = G.J.z.z.z.c.m.M.M.M.M.M.b.z.z.z.H.J.q   b B $.&.",
"&.&.&.p.a.N   = D.L.I.I.I.I.L.L.L.L.L.L.I.I.I.I.L.H.q   N a.p.&.",
"&.&.&.&.p. .: 2 J 6.J.L.L.L.L.L.L.L.L.L.L.L.L.L.u.,.w :  .p.&.&.",
"&.&.p.&.p.} 7 4 r G H.L.L.L.L.L.L.L.L.L.L.L.L.L.<.r 3 7 } p.&.&.",
"p...R E Y H u t V G H.Y.W.E.U.L.L.L.L.P.R.W.Y.L.<.V U _ #.p.&.&.",
"p.Q 5 3 p V V V V G H.T.~.!.Y.L.L.L.L.U.Q.~.T.J.<.V [ a.p.&.&.&.",
"p.Q 5 h d.7.u i ) X.V.N.x c F.D.z l S.J.*.x N.V.@.{ W R O.p.&.&.",
"p.Q 5 ( I.C.7 9 =.;.;.! . + S.S.+ X j.K.= . ! ;.-.-.j 8 } p.&.&.",
"p.Q 5 k v.9.7 9 =.-.;.+.z / 8.8./ z 8.s./ z +.-.-.-.j 7 } p.&.&.",
"p.Q 5 h g.7.7 9 =.;.-.B.L.G.A A G.J.G V b.L.B.-.-.-.j 6 } p.&.&.",
"p.Q 5 d 3.1.~ ^ ) X.Z.A.L.H.s.s.H.L.d.8.G.L.A.Z.o.) ^ ~ Y ] $.&.",
"p.Q 7 a V G g.q.V G H.I.L.L.L.L.L.L.L.L.L.L.I.L.<.V 5.g.G V ] &.",
"p.Q 7 4 y K g.e.:.4.v.m.L.L.L.L.L.L.L.L.L.L.m.v.6.:.r.g.K y { p.",
"p.Q 5 7 5 h g.g.g.g.g.h.J.L.I.I.L.L.I.I.L.L.h.g.g.g.g.g.h 5 Q p.",
"p.| T g 6 h g.g.g.y.5.s.J.J.z.l.n.m.z.l.H.J.s.5.e.g.g.g.h 5 Q p.",
"&.&.&.} 7 h g.g.g.q.V G J.G.F Z e.t.D Z b.J.G V 5.g.g.g.h 5 Q p.",
"&.&.p.} 7 s 5.5.g.e.P <.k.d.Z Z e.t.D V f.k.<.G q.g.q.5.s 5 Q p.",
"&.&.p.} 7 a V D t.g.g.q.C V V Z e.t.D V V C q.g.g.g.G V a 5 Q p.",
"&.&.p...T f 0 e 4.5.5.4.G G G >.e.t.:.G G G 4.5.5.5.t 0 f T | p.",
"&.&.&.&.a.N   O r V V D t.g.g.g.g.g.g.g.g.t.D V V V $   N a.&.&.",
"&.&.&.&.a.N   O Z D D G q.q.q.q.q.q.q.q.q.q.G D D D &   N a.&.&.",
"&.&.&.&.a.N   & r.t.t.q.Z V V V V V V V V Z q.t.t.y.-   N p.&.&.",
"&.&.&.&.a.` % , 1.2.2.,.S S S S S S S S S S ,.2.2.2.< % ` p.p.p.",
"&.&.&.&.&.%.%.` O X X * #.%.%.%.%.%.%.%.%.#.* X . o M %.%.&.&.&.",
"&.&.&.&.&.&.a.' .     % %.&.&.&.&.&.&.&.p.%.%       N p.&.&.&.&."
};
