/* XPM */
static char *floor[] = {
/* columns rows colors chars-per-pixel */
"32 32 157 2 ",
"   c #394F00",
".  c #375400",
"X  c #395201",
"o  c #395806",
"O  c #3B5C0B",
"+  c #3B5E12",
"@  c #39610E",
"#  c #3A6412",
"$  c #396A15",
"%  c #3B651D",
"&  c #396E19",
"*  c #39741E",
"=  c #3B6C24",
"-  c #3B6F2A",
";  c #3A7523",
":  c #397C24",
">  c #3B732E",
",  c #3C7F2A",
"<  c #3C7734",
"1  c #3C7B35",
"2  c #3C7D3B",
"3  c #43671B",
"4  c #48671B",
"5  c #4C6C23",
"6  c #42732D",
"7  c #4B792E",
"8  c #407F35",
"9  c #567E38",
"0  c #39832B",
"q  c #36892D",
"w  c #39892F",
"e  c #398C32",
"r  c #3C843E",
"t  c #3B8F3A",
"y  c #3B913D",
"u  c #498B3C",
"i  c #5A823F",
"p  c #3D8243",
"a  c #3D8548",
"s  c #3C8C4A",
"d  c #3B9444",
"f  c #3C954B",
"g  c #3B984E",
"h  c #3D8B52",
"j  c #3C9C55",
"k  c #3E955B",
"l  c #3D9D5C",
"z  c #3F9762",
"x  c #3E9E66",
"c  c #3F9F6A",
"v  c #17A469",
"b  c #1CA66D",
"n  c #28A466",
"m  c #2BA669",
"M  c #3DA263",
"N  c #3EA46A",
"B  c #23A972",
"V  c #2CAE77",
"C  c #3FA973",
"Z  c #30AF79",
"A  c #3FAC7B",
"S  c #4B8141",
"D  c #448E42",
"F  c #4E894B",
"G  c #558D4F",
"H  c #429645",
"J  c #449A4D",
"K  c #4A9B4C",
"L  c #429B51",
"P  c #4B9E51",
"I  c #509F53",
"U  c #559F5E",
"Y  c #46A25E",
"T  c #54A155",
"R  c #56A359",
"E  c #5C9E64",
"W  c #4AA563",
"Q  c #41A36B",
"!  c #4AA16E",
"~  c #49A96C",
"^  c #52A863",
"/  c #55AB69",
"(  c #41AA75",
")  c #40AD7C",
"_  c #48AF7C",
"`  c #52AE73",
"'  c #5BAF72",
"]  c #57AB79",
"[  c #44B07F",
"{  c #5BB275",
"}  c #5EB479",
"|  c #60A169",
" . c #63AB77",
".. c #64AE7B",
"X. c #61B170",
"o. c #3EB187",
"O. c #40AF82",
"+. c #41B185",
"@. c #4CB383",
"#. c #44B886",
"$. c #42B58C",
"%. c #48B78E",
"&. c #48B88F",
"*. c #5DB686",
"=. c #5CB983",
"-. c #51BD8E",
";. c #5DBC8C",
":. c #47B890",
">. c #4CBA91",
",. c #53BD94",
"<. c #64B584",
"1. c #69B787",
"2. c #63BB85",
"3. c #62BC88",
"4. c #69BA8A",
"5. c #55C091",
"6. c #5AC097",
"7. c #5DC29A",
"8. c #68C18F",
"9. c #65C397",
"0. c #69C292",
"q. c #65C69D",
"w. c #6BC69C",
"e. c #67C89C",
"r. c #69C89F",
"t. c #70C79A",
"y. c #70CA9E",
"u. c #6CCAA0",
"i. c #73CDA4",
"p. c #76CFA8",
"a. c #75D0A8",
"s. c #7CD1A9",
"d. c #7CD1AA",
"f. c #92D6AC",
"g. c #8FD7B0",
"h. c #8EDBB7",
"j. c #8EDCB7",
"k. c #8FDBB9",
"l. c #99D6B0",
"z. c #93DAB2",
"x. c #93DBB5",
"c. c #9BD9B4",
"v. c #9BDCB7",
"b. c #98DCB5",
"n. c #91DCB8",
"m. c #97DDB8",
"M. c #95DFBC",
"N. c #97DFBD",
"B. c #9ADEB9",
"V. c #9DDDB8",
"C. c #97E0BD",
"Z. c #9DE0BA",
"A. c #9DE0BB",
"S. c #9AE1BF",
"D. c #9CE2C1",
"F. c #A0E4C3",
"G. c #A3E5C4",
/* pixels */
"i.i.i.i.i.q.$.&.i.i.i.i.i.i.i.i.i.i.i.i.i.i.i.i.>.$.q.i.i.i.i.i.",
"i.u.q.r.i.r.,.,.i.i.i.i.i.i.i.i.i.i.i.i.i.i.i.i.7.,.r.i.i.i.u.q.",
"i.7.$.,.i.i.i.i.i.i.i.i.i.i.i.i.i.i.i.i.i.i.i.i.i.i.i.i.i.i.,.$.",
"i.q.>.6.i.i.i.i.q.q.i.i.i.i.q.9.2.2.y.i.i.i.r.q.u.i.i.i.i.i.7.>.",
"i.i.i.i.i.i.i.r.%.:.i.i.i.u.:.+.y t 8.i.i.i.>.$.q.i.i.i.i.i.i.i.",
"i.i.i.i.i.i.i.u.>.,.i.i.u.9.[ ( P K 2.0.i.i.,.:.q.i.i.i.i.i.i.i.",
"i.i.i.i.i.i.i.i.i.i.i.u.%.+.y H f.v.I y 8.i.i.i.i.i.i.i.i.i.i.i.",
"i.i.i.y.0.8.8.8.8.0.r.q.$.+.P R z.M.K t 3.r.4.1.4.8.4.1.t.i.i.i.",
"i.i.i.2.y t t t t f $.%.$.>.x.B.d.i.J t ) +.= O , t $ O  .a.i.i.",
"i.r.9.=.K K K K H J ( A A @.n.N.i.9.H t x Q 6 3 u K 7 5 | 4.w.i.",
"i.-.b #.B.Z.Z.x.y.3.y t t H t.i.:.+.d q # + ..t.g.Z.V.c.i o E i.",
"i.-.b #.M.S.F.C.i.8.y t e y 0.r.%.+.t 0 # # <.i.h.D.v.l.9 . E i.",
"i.u.e.5.V #.s.s.i.r.+.N t y @.&.$.O.= O z ( $.:.>.,.S 4 : 0 ' i.",
"i.i.u.-.v Z r.r.w.9.%.A y d A +.$.O.% o c +.+.+.) A = X : e { i.",
"i.,.B B v b B m H L +.$.A C d d +.+.t 0 t y y y = + o X : e Q :.",
"i.-.B B B B B n t d A +.$.O.t t ) ) d e w w t t & O O O 0 y N $.",
"%.q.j.j.j.j.j.d.+.C d g $.O.y e y y t q # O x ) *.4.4.4.0.0.-.$.",
"o.r.F.F.G.G.G.k.:.A t d +.) y e q q q w O o N $.q.i.i.i.i.i.,.+.",
"d J T X.g.i.7.,.$.+.C N f d t w # @ @ @ * : d f _ >.>.>.W K 8 = ",
"e e q P y.9.+.+.+.+.$.C e q e 0 o X X X : e q e N $.+.+.f q $ X ",
"3.^ e y P D = = = = = = @ # w 0 o X * : # @ @ @ % = = = 0 e 0 : ",
"p.{ e e e : X X X X X X X o 0 w o X 0 q O X X X X X X X : e e e ",
"i.;.N l e 0 * * * * * & X X # # X X @ $ * * * * * * O X s N ` } ",
"i.7.$.C e e e e e e e 0 X X X X X X X X 0 e e e e e @ X z $.7.i.",
"i.=.j Y } ` N N N l t w * * * * * * o X : t l N N N k h 2 < ! ,.",
"i.{ q P i.q.$.$.$.) t e e e e e e q O X : t A $.$.$.$.$.-   h $.",
",.~ q J ,.@.j f 2 > $ ; M N N M t q : * $ $ > < f j A $.- X 1 j ",
"$.M e g $.C e : X     % +.$.$.+.y e e e O     X : e C $.> X * e ",
"$.k & ; a 2 * & & & & ; p h O.O.y q * & & & & & & * 2 a # X * e ",
"$.h   X       O q e e 0 X + ) +.y q O X 0 e e e @       X X * e ",
"7.] G F p p p r e e e w & * p p * & & & w e e e r p p p F G U / ",
"i.i.i.q.$.$.$.A t e e e e 0 o X X X 0 e e e e e C $.$.$.q.i.i.i."
};
