/* XPM */
static char *player[] = {
/* columns rows colors chars-per-pixel */
"32 32 200 2 ",
"   c #010101",
".  c #07060A",
"X  c #120B05",
"o  c #130D09",
"O  c #1F0C0D",
"+  c #1B1616",
"@  c #0A0A14",
"#  c #210C0C",
"$  c #201005",
"%  c #3A1D07",
"&  c #251414",
"*  c #371114",
"=  c #34231A",
"-  c #3A271D",
";  c #161828",
":  c #151632",
">  c #291D2C",
",  c #301F27",
"<  c #1E2C37",
"1  c #16212E",
"2  c #272024",
"3  c #322624",
"4  c #3B2937",
"5  c #491919",
"6  c #561919",
"7  c #621C1C",
"8  c #49250B",
"9  c #43291A",
"0  c #563214",
"q  c #61300F",
"w  c #64241D",
"e  c #7C3E13",
"r  c #6F3710",
"t  c #452824",
"y  c #5A2E26",
"u  c #5D3932",
"i  c #662826",
"p  c #742C29",
"a  c #792829",
"s  c #663921",
"d  c #7A312B",
"f  c #7A3F3F",
"g  c #7B401D",
"h  c #5F422F",
"j  c #78483D",
"k  c #6D4531",
"l  c #232249",
"z  c #283C4C",
"x  c #272756",
"c  c #2C335A",
"v  c #34344F",
"b  c #2E2E63",
"n  c #302F62",
"m  c #34386A",
"M  c #3B3B7D",
"N  c #373775",
"B  c #2E3068",
"V  c #413E4A",
"C  c #4A2E54",
"Z  c #53325D",
"A  c #69384E",
"S  c #743D41",
"D  c #693854",
"F  c #5B3A6E",
"G  c #6C3962",
"H  c #3A4375",
"J  c #414250",
"K  c #5C575B",
"L  c #784B51",
"P  c #5B5C62",
"I  c #4D487E",
"U  c #49457C",
"Y  c #515D76",
"T  c #675279",
"R  c #7B5D79",
"E  c #634D70",
"W  c #48677C",
"Q  c #7A6675",
"!  c #87352B",
"~  c #953632",
"^  c #96382D",
"/  c #AA3A3B",
"(  c #BC3637",
")  c #BE3738",
"_  c #BE3C3B",
"`  c #B23435",
"'  c #A52F2F",
"]  c #C53A3B",
"[  c #CB3D3A",
"{  c #C33738",
"}  c #854315",
"|  c #8A4516",
" . c #954B17",
".. c #974A18",
"X. c #A75319",
"o. c #B2591C",
"O. c #BD5E1D",
"+. c #8A4A39",
"@. c #974E39",
"#. c #96533A",
"$. c #905430",
"%. c #BA5628",
"&. c #AE5232",
"*. c #986D3A",
"=. c #BC6236",
"-. c #C9641F",
";. c #C55D28",
":. c #D5473E",
">. c #CD423C",
",. c #C56223",
"<. c #DB6B27",
"1. c #D56926",
"2. c #CD6830",
"3. c #C46333",
"4. c #D26B32",
"5. c #E77425",
"6. c #F37926",
"7. c #FF7F27",
"8. c #FA7D28",
"9. c #F27929",
"0. c #854946",
"q. c #854847",
"w. c #96574E",
"e. c #9A5A51",
"r. c #A35D4B",
"t. c #9E6754",
"y. c #986448",
"u. c #A76856",
"i. c #AB7056",
"p. c #B7735F",
"a. c #A7654A",
"s. c #8C5761",
"d. c #936C68",
"f. c #BE7B62",
"g. c #B47764",
"h. c #C34649",
"j. c #C95558",
"k. c #DA4D40",
"l. c #E04F41",
"z. c #E45342",
"x. c #E25D44",
"c. c #E85643",
"v. c #E9604F",
"b. c #FF6847",
"n. c #FF6A4A",
"m. c #F86447",
"M. c #C85D63",
"N. c #C27D65",
"B. c #F87A64",
"V. c #FF8027",
"C. c #FF8128",
"Z. c #BA8176",
"A. c #B48E70",
"S. c #CB8569",
"D. c #C9876A",
"F. c #D48C6E",
"G. c #D28F65",
"H. c #D79070",
"J. c #DE9775",
"K. c #D0926D",
"L. c #E49A77",
"P. c #434C89",
"I. c #534C80",
"U. c #445887",
"Y. c #5A5C92",
"T. c #4C6B84",
"R. c #4C6097",
"E. c #5D609A",
"W. c #7B6B8F",
"Q. c #7E75A3",
"!. c #5D829A",
"~. c #6D9ABB",
"^. c #6A96B8",
"/. c #B88982",
"(. c #B98BA1",
"). c #B79BB5",
"_. c #B7A3BF",
"`. c #CA9A82",
"'. c #F69D92",
"]. c #CFA285",
"[. c #F2AF84",
"{. c #EEB086",
"}. c #F3B98B",
"|. c #F7B78A",
" X c #E3B291",
".X c #F8A59A",
"XX c #DEB1BD",
"oX c #E3B3BD",
"OX c #FFC895",
"+X c #BFB2CE",
"@X c #B5B7D7",
"#X c #BABBDB",
"$X c #B5A5C3",
"%X c #E3B8C4",
"&X c #E6CDDC",
"*X c #E2C0CD",
"=X c #DED9ED",
"-X c #DEDEF3",
";X c #EADCEB",
":X c #E9EAFC",
/* pixels */
"7.7.7.7.7.7.7.7.7.7.7.7.7.7.7.7.7.7.7.7.7.7.7.7.7.7.7.7.7.7.7.7.",
"7.7.7.7.7.7.7.7.7.7.7.7.7.7.7.7.7.7.7.7.7.7.7.7.7.7.7.7.7.7.7.7.",
"7.7.7.7.7.7.7.7.7.7.7.7.7.7.7.7.7.7.7.7.7.7.7.7.7.7.7.7.7.7.7.7.",
"7.7.7.7.7.7.7.7.V.V.V.V.V.V.V.V.V.V.V.V.V.V.V.V.7.7.7.7.7.7.7.7.",
"7.7.7.7.7.7.V.9.<.<.<.<.<.<.<.<.<.<.<.<.<.<.<.<.8.V.7.7.7.7.7.7.",
"7.7.7.7.7.8.6.;.p p d d d d d d d d d d d d p d <.6.8.7.7.7.7.7.",
"7.7.7.7.V.;.! ^ ` _ x.x.x.x.x.x.x.x.x.x.x.x._ ` ^ ! 1.V.7.7.7.7.",
"7.7.7.V.V.%.i ~ l.c.n.n.n.n.n.n.n.n.n.n.n.n.c.k.! i 1.V.7.7.7.7.",
"7.7.7.9.<.&.a &.n.n.n.n.n.n.n.n.n.n.n.n.n.n.n.m.~ d %.<.6.V.7.7.",
"7.7.V.%.p ~ { :.n.n.n.n.n.n.n.n.n.n.n.n.n.n.n.m.>.) ! p 1.V.7.7.",
"7.7.V...O a ] [ :.z.n.n.n.n.b.b.b.b.n.n.n.n.z.:.[ ] 6 # O.V.7.7.",
"7.7.C.}   7 ] { { [ z.z.z.v.'..X.X'.v.z.z.z.[ { ] ] *   o.C.V.7.",
"7.5.5.} o w ) _ h.h.] ] h.M.&X;X;X&XM.h.] ] h.h.) ( 5 o X.5.9.V.",
"7.e $ 0 *.+.p s.$X(.] j._.).j.j.j.j.).).h.] (.).q.p $.*.9 $ ..C.",
"V.q   h G.j O v E.Q.XX*X-X=X%XoXoX%X=X=X%XXXQ.Y., # y.G.-   | V.",
"7. .8 k u.u & 4 T W.@X#X#X#X#X#X#X#X#X#X#X@XW.E , & j t.s 8 o.V.",
"7.7.8.}   t 0.u.J.Z.I.U N N I I.I.I N N I I.Z.H.w.0.&   o.8.7.7.",
"7.7.C.}   k F.F.J.J. XA.@ 2 ]. X X].2 + `. XJ.J.F.S.t   o.V.V.V.",
"7.7.V.-.| #.u.f.L.L.[.D.t u }.OXOX}.u y J.[.L.J.p.u.$.| <.C.V.V.",
"7.V.V.5.O.@.D L u.i.N.g.e.u.{.|.|.{.u.e.f.N.i.t.L A &.O.5.V.V.V.",
"V.7.8.| X l M x . & f w.F.F.H.H.H.H.F.S.0.L & . n M ; X o.8.7.7.",
"7.3.@.i.A.Q N N x C / ~ - = = = = = = t / / C x N M d.K.a.@.4.V.",
"7.&.S g.|./.R T M F ] ' 5 5 V J J V 5 6 ` ] F M T R `.|.t.S 3.V.",
"7.=.+.u.F.S.f.s.B Z ) ] [ j.+X#X#X+Xj.[ ] ) Z m d.f.S.S.r.+.2.V.",
"7.8.9.=.0.t o X . * ) :.m.B.;X:X:X;XB.m.[ ) * . o o u 0.4.9.8.7.",
"7.7.V.5.2.j l c W Y G A w y K P P K y i D G Y W c l @.2.9.V.7.7.",
"7.7.7.V.V.#.x H T.T.R.U.z <         < z U.R.T.T.c x =.V.7.7.7.7.",
"7.7.7.7.V.e     . < ^.~.^.!.+ X X + !.~.~.^.< .     X.C.7.7.7.7.",
"7.7.7.7.C.e   ; b m P.H ; 3 ,.1.1.,.3 1 H P.m b @   X.C.7.7.7.7.",
"7.7.7.7.V.-. .s : : : 3  .X.8.V.V.8.X.} > : : : g ..<.V.7.7.7.7.",
"7.7.7.7.7.V.C.O.% % % r 7.V.7.7.7.7.C.5.0 % % 8 <.C.V.7.7.7.7.7.",
"7.7.7.7.7.7.7.8.9.9.9.6.7.7.7.7.7.7.7.7.6.9.9.9.7.7.7.7.7.7.7.7."
};
