/* XPM */
static char *wall[] = {
/* columns rows colors chars-per-pixel */
"32 32 149 2 ",
"   c #010100",
".  c #0D0602",
"X  c #070803",
"o  c #0C0C05",
"O  c #100802",
"+  c #190C04",
"@  c #111107",
"#  c #141409",
"$  c #17190A",
"%  c #1C1C0C",
"&  c #1F1E10",
"*  c #251306",
"=  c #251E0C",
"-  c #201E11",
";  c #23230F",
":  c #2C240E",
">  c #252411",
",  c #292715",
"<  c #2C2B14",
"1  c #343516",
"2  c #373817",
"3  c #383817",
"4  c #34321B",
"5  c #38351D",
"6  c #363818",
"7  c #3A3A19",
"8  c #4C260C",
"9  c #432A0F",
"0  c #5B2E0E",
"q  c #452F11",
"w  c #423E1C",
"e  c #563D1D",
"r  c #62310F",
"t  c #663310",
"y  c #6D3812",
"u  c #743912",
"i  c #793C13",
"p  c #423F22",
"a  c #43411E",
"s  c #4B431D",
"d  c #53421A",
"f  c #5C451B",
"g  c #67491B",
"h  c #684A1C",
"j  c #754317",
"k  c #7C4014",
"l  c #734D1C",
"z  c #454222",
"x  c #494423",
"c  c #4D4A24",
"v  c #4F4A2A",
"b  c #514E26",
"n  c #534528",
"m  c #524D29",
"M  c #5C4E2C",
"N  c #585127",
"B  c #55522A",
"V  c #5A552B",
"C  c #5D5A2F",
"Z  c #5F5631",
"A  c #5F5A30",
"S  c #6D5627",
"D  c #645A2D",
"F  c #765927",
"G  c #645E33",
"H  c #6A5F31",
"J  c #666134",
"K  c #6B6435",
"L  c #6C6638",
"P  c #6E6839",
"I  c #736B3B",
"U  c #7A6C3A",
"Y  c #7E713D",
"T  c #7C7441",
"R  c #864314",
"E  c #944A17",
"W  c #9C4E18",
"Q  c #84541E",
"!  c #94591F",
"~  c #A15019",
"^  c #AB551A",
"/  c #B95C1C",
"(  c #A35E20",
")  c #82723D",
"_  c #B36421",
"`  c #BC6722",
"'  c #CE661F",
"]  c #C56A23",
"[  c #CC6B22",
"{  c #DB6E22",
"}  c #DB7224",
"|  c #E67323",
" . c #EA7625",
".. c #EB7825",
"X. c #F07725",
"o. c #F37B26",
"O. c #FF7F27",
"+. c #837945",
"@. c #887B45",
"#. c #8C7F48",
"$. c #FF8027",
"%. c #FF8128",
"&. c #968147",
"*. c #988347",
"=. c #93834A",
"-. c #988449",
";. c #9C894E",
":. c #A38C4E",
">. c #A28E51",
",. c #A79153",
"<. c #AE9756",
"1. c #AC9555",
"2. c #AB9353",
"3. c #B19654",
"4. c #B29755",
"5. c #B39755",
"6. c #B09856",
"7. c #B89C57",
"8. c #B49B58",
"9. c #BC9F5A",
"0. c #BDA05A",
"q. c #BDA15C",
"w. c #BEA25C",
"e. c #C1A35C",
"r. c #C2A55E",
"t. c #C5A65E",
"y. c #C5A75F",
"u. c #C4A65E",
"i. c #C7A75F",
"p. c #C5A65F",
"a. c #C7A860",
"s. c #C7A860",
"d. c #C8A960",
"f. c #C9A960",
"g. c #CAA960",
"h. c #CBAA61",
"j. c #CBAA61",
"k. c #CCAB62",
"l. c #CCAC62",
"z. c #CDAC62",
"x. c #CEAC62",
"c. c #CEAD62",
"v. c #CEAD63",
"b. c #CFAE63",
"n. c #D0AE63",
"m. c #D1AF64",
"M. c #D0AE63",
"N. c #D2B064",
"B. c #D3B065",
/* pixels */
"O.O.O.O.O.O.O.O.O.O.O.O.O.O.O.O.O.O.O.O.O.O.O.O.O.O.O.O.O.O.O.O.",
"O.O.O.O.O.O.O.O.O.O.O.O.$.$.O.$.$.$.O.O.O.O.O.O.O.O.O.O.O.O.O.O.",
"O.O.O.O.O.O.O.O.O.O.O.O.............O.O.O.O.O.O.O.O.O.O.O.O.O.O.",
"O.O.O.O.O.O.O.O.O.O.$.} f d d d d f } $.O.O.O.O.O.O.O.O.O.O.O.O.",
"O.O.O.O.O.O.O.O.o.o.o.[ w 3 a a a s [ o.o.o.O.O.O.O.O.O.O.O.O.O.",
"O.O.O.O.O.O.$.] f f f d 3 x :.5.5.2.S f f f ] $.O.O.O.O.O.O.O.O.",
"O.O.O.O.O.O.o._ 3 6 6 3 7 b e.b.b.i.V 3 3 3 _ o.O.O.O.O.O.O.O.O.",
"O.O.O.O.$.` h f 3 3 3 b :.1.g.b.b.g.5.:.Y K S g ` $.O.O.O.O.O.O.",
"O.O.O.O.O.( 6 3 3 3 3 N i.b.b.b.b.b.b.k.=.T b 1 ( O.O.O.O.O.O.O.",
"O.O.$._ l S J U :.) 3 N t.b.b.b.b.g.>.=.+.T b 3 q 8 ~ $.O.O.O.O.",
"O.O.$.! 1 B T ;.N.:.3 N t.b.b.b.b.g.#.T T T b 3 $   u $.O.O.O.O.",
"O.O.$.! 6 a b Y b.0.&.&.;.>.g.g.>.;.2.<.K b , # 4 v e r W O.O.O.",
"O.$.$.! 1 3 1 K b.b.n.q.T +.t.a.+.T q.b.D 1 #   z +.p   0 O.O.O.",
"O.` ! F C 7 $ x ;.<.b.t.2.:.) U C B M M < $ % ; 7 V <   0 O.O.O.",
"O.Q 1 C +.z   , T =.b.b.n.7.a 1 1 1 X       ; 3 3 3 %   r %.$.O.",
"O.j % 7 C 4   > V I >.<.k.9.G V U U x 5 > $ z V V V 7 $ 9 R ^ O.",
"O.r   % 3 %   @ 1 c T =.g.r.+.+.t.b.=.T c 3 G T T T C 3 >   8 O.",
"O.r   < B m n z 3 a A I ,.2.;.;.2.,.Z x b B L T T T b ; #   8 O.",
"O.r   p T >.N.*.1 3 3 z I +.a.a.@.I $   V T T T T +.p       8 O.",
"O.r   5 J @.8.-.J V 3 c =.;.6.2.I A #   x J I T G m 4 # o   8 O.",
"$.r   % 3 V T ;.m.:.7 N i.r.+.I a 1 o   , 7 G T 5   $ 3 ;   8 O.",
"$.r   % 3 c K ) ,.) < w :.;.I J c x , - > , b L 5 o ; 3 ;   8 O.",
"$.r   % 3 3 3 7 w <   o 3 7 3 w I T T I >   > 7 3 1 3 3 ;   8 O.",
"$.r   % 3 3 3 1 < ;   o 1 3 a c J P P L -   % < 1 3 3 3 ;   8 O.",
"O.r   % 3 3 3 > X     o 1 a I I z 7 7 7 #       ; 3 3 3 ;   8 O.",
"O.i * : 1 1 3 ;       o 1 a L L a 3 3 3 @       $ 1 1 1 : * t O.",
"O.o.| y X % 3 ;       o 1 3 7 7 3 3 3 3 @         X X X 0 |  .O.",
"O.$.%.R + = 1 ;       o 1 1 3 3 3 3 1 1 o       . + + + u $.$.O.",
"O.O.O. .{ k X X         X o 1 3 3 1 # X         i { { { | O.O.O.",
"O.O.O.O.%.E O O O O O .   X 1 1 1 1 o   X O O O E %.$.$.O.O.O.O.",
"O.O.O.O.O...' ' ' ' [ ~ X   o o o o   X E [ ' ' ..O.O.O.O.O.O.O.",
"O.O.O.O.O.$.%.%.%.%.%.' .             X / %.$.$.O.O.O.O.O.O.O.O."
};
